<svg xmlns="http://www.w3.org/2000/svg" width="200" height="200"
     viewBox="80.10 278.06 233.88 233.88" preserveAspectRatio="xMidYMid meet">
  <style>
    tspan { white-space:pre } 
    .s0 { fill: #3370b7 } 
  </style>
  <g id="Layer 1">
    <g>
      <path class="s0" d="m211.12 313.66h-28.16l-61.4 136.9h27.96l11.73-25.82h23.84v-24.05h-13.47l25.42-58.28 25.42 58.28h-14.56v24.05h24.93l11.54 25.82h28.16z"/>
      <path class="s0" d="m197.04 511.94c-64.48 0-116.94-52.46-116.94-116.95 0-64.48 52.46-116.94 116.94-116.94 64.48 0 116.94 52.46 116.94 116.94 0 64.49-52.46 116.95-116.94 116.95zm0-222.29c-58.09 0-105.34 47.26-105.34 105.34 0 58.09 47.25 105.35 105.34 105.35 58.09 0 105.35-47.26 105.35-105.35 0-58.08-47.26-105.34-105.35-105.34z"/>
    </g>
  </g>
</svg>
